Coordinates
version=1
nRows=7
nColumns=46
inDegrees=yes

Units are S.I. units (second, meters, Newtons, ...)
Angles are in degrees.

endheader
time	pelvis_tilt	pelvis_list	pelvis_rotation	pelvis_tx	pelvis_ty	pelvis_tz	bb_angle	bb_tx	bb_ty	bb_tz	hip_flexion_r	hip_adduction_r	hip_rotation_r	knee_angle_r	knee_angle_r_beta	ankle_angle_r	subtalar_angle_r	mtp_angle_r	crank_angle_r	hip_flexion_l	hip_adduction_l	hip_rotation_l	knee_angle_l	knee_angle_l_beta	ankle_angle_l	subtalar_angle_l	mtp_angle_l	crank_angle_l	lumbar_extension	lumbar_bending	lumbar_rotation	arm_flex_r	arm_add_r	arm_rot_r	elbow_flex_r	pro_sup_r	wrist_flex_r	wrist_dev_r	arm_flex_l	arm_add_l	arm_rot_l	elbow_flex_l	pro_sup_l	wrist_flex_l	wrist_dev_l
      2.50000000	    -11.17056030	      4.34403533	      1.73832295	      0.09219004	      1.14892714	     -0.21748926	      0.00000000	      0.50000000	      0.00000000	      0.25000000	     56.42587750	    -12.91698577	     -3.82845752	     76.22975206	      1.33046016	     -9.41118022	    -11.01418921	      0.00000000	      0.00000000	     76.95895488	     -7.93013669	     -5.20334422	     83.59369350	      1.45898519	     26.84028304	      4.91268559	      0.00000000	      0.00000000	    -58.91681185	     -5.27569491	     -0.05259612	     89.68246004	     -7.52056046	     20.08812559	     33.59368354	     27.80093309	      0.00000000	      0.00000000	     89.80475238	      4.74668445	     20.80818431	     35.12524783	     23.92654394	      0.00000000	      0.00000000
      2.50500000	    -11.31259832	      4.19507118	      1.75384904	      0.09179884	      1.14950926	     -0.21830721	      0.00000000	      0.50000000	      0.00000000	      0.25000000	     56.93861359	    -12.95665689	     -3.78904684	     77.12314876	      1.34605288	     -8.99486680	    -10.64457613	      0.00000000	      0.00000000	     76.49761703	     -7.63191775	     -5.02339481	     82.29800760	      1.43637120	     26.39160083	      4.64497347	      0.00000000	      0.00000000	    -58.78634698	     -5.11695373	      0.10113028	     89.69377046	     -8.13344697	     22.54423580	     34.65930076	     20.95890059	      0.00000000	      0.00000000	     89.80384013	      4.64967134	     21.64309895	     36.43308532	     16.88136595	      0.00000000	      0.00000000
      2.51000000	    -11.67736972	      3.91446661	      1.36611873	      0.09210095	      1.14951153	     -0.21891397	      0.00000000	      0.50000000	      0.00000000	      0.25000000	     57.72674851	    -12.56089126	     -3.62032458	     78.00096550	      1.36137367	     -8.76836088	    -10.52736279	      0.00000000	      0.00000000	     76.27413813	     -7.87716352	     -4.87186887	     81.17562140	      1.41678187	     26.08075081	      4.70776669	      0.00000000	      0.00000000	    -58.40852096	     -5.19349007	      0.56260624	     89.69170041	     -8.12342682	     22.03010385	     34.51740443	     21.80094204	      0.00000000	      0.00000000	     89.80117166	      4.92452950	     21.17579375	     35.98684017	     18.02662754	      0.00000000	      0.00000000
      2.51500000	    -11.91321076	      3.80685293	      1.13130278	      0.09191445	      1.14988511	     -0.21959953	      0.00000000	      0.50000000	      0.00000000	      0.25000000	     58.43324938	    -12.41239648	     -3.38047173	     78.90560016	      1.37716252	     -8.45030627	    -10.23477458	      0.00000000	      0.00000000	     75.82693984	     -7.88705595	     -4.83466320	     79.88692181	      1.39428981	     25.68987127	      4.55375649	      0.00000000	      0.00000000	    -58.21431378	     -5.22740374	      0.78937617	     89.69343724	     -8.12029490	     21.87924554	     34.36410004	     22.77005677	      0.00000000	      0.00000000	     89.80029091	      5.03134187	     20.94835851	     35.76179965	     19.15902554	      0.00000000	      0.00000000
      2.52000000	    -12.03234509	      3.62035217	      0.91552285	      0.09188225	      1.15048047	     -0.22029143	      0.00000000	      0.50000000	      0.00000000	      0.25000000	     58.98591665	    -12.26031737	     -3.25644991	     79.80724799	      1.39289924	     -8.14260552	     -9.96495166	      0.00000000	      0.00000000	     75.25041032	     -7.91545611	     -4.70719229	     78.59364038	      1.37171780	     25.29851117	      4.67350671	      0.00000000	      0.00000000	    -58.13252939	     -5.22851916	      1.08734727	     89.69896074	     -8.39191070	     22.20775360	     34.39191743	     23.09400447	      0.00000000	      0.00000000	     89.79944709	      5.26091961	     21.39901254	     35.32865453	     19.61590068	      0.00000000	      0.00000000
      2.52500000	    -12.03759900	      3.42032430	      0.61881245	      0.09191062	      1.15127874	     -0.22075336	      0.00000000	      0.50000000	      0.00000000	      0.25000000	     59.40979210	    -12.01010060	     -3.13226347	     80.66696440	      1.40790413	     -7.98261187	     -9.97387708	      0.00000000	      0.00000000	     74.50427681	     -8.07050281	     -4.62923915	     77.27902305	      1.34877339	     24.89714910	      4.93030072	      0.00000000	      0.00000000	    -58.22671319	     -5.27519212	      1.45353102	     89.69492442	     -8.27371186	     20.77505917	     34.56958306	     24.70883227	      0.00000000	      0.00000000	     89.79911897	      5.62726575	     20.37362651	     35.15483582	     21.44594964	      0.00000000	      0.00000000
      2.53000000	    -12.17893014	      3.33055820	      0.31132450	      0.09194818	      1.15178061	     -0.22113144	      0.00000000	      0.50000000	      0.00000000	      0.25000000	     60.06066717	    -11.80164802	     -2.86780224	     81.62301456	      1.42459035	     -7.39467341	     -9.74492408	      0.00000000	      0.00000000	     73.84344913	     -8.18481082	     -4.65543775	     75.90427159	      1.32477946	     24.53593821	      4.93665625	      0.00000000	      0.00000000	    -58.14445416	     -5.42453986	      1.66659667	     89.69196073	     -8.26305905	     20.38768960	     34.66541807	     25.39901304	      0.00000000	      0.00000000	     89.79887571	      5.69760721	     20.02608074	     35.09474551	     22.24320736	      0.00000000	      0.00000000
